<svg xmlns="http://www.w3.org/2000/svg" viewBox="0 0 32 32" fill="none">
  <rect width="32" height="32" rx="8" fill="url(#grad)"/>
  <defs>
    <linearGradient id="grad" x1="0" y1="0" x2="32" y2="32" gradientUnits="userSpaceOnUse">
      <stop offset="0%" stop-color="#2563eb"/>
      <stop offset="100%" stop-color="#06b6d4"/>
    </linearGradient>
  </defs>
  <!-- Wrench icon simplified -->
  <path d="M19.5 6.5C17.2 6.5 15.3 7.9 14.5 9.9L8 16.4l2.1 2.1 4-4 1.4 1.4-4 4 1.4 1.4 6.5-6.5c2 .8 4.4.3 6-1.3 1.9-1.9 2.2-4.8.8-7l-3.2 3.2-2.1-2.1 3.2-3.2c-1.1-.7-2.3-1-3.6-.9z" fill="white" opacity="0.95"/>
  <!-- Calendar badge -->
  <rect x="4" y="18" width="12" height="10" rx="2" fill="#0ea5e9" opacity="0.9"/>
  <rect x="6" y="16" width="8" height="2" rx="1" fill="#7dd3fc"/>
  <rect x="6" y="21" width="8" height="1.5" rx="0.5" fill="white" opacity="0.8"/>
  <rect x="6" y="24" width="5" height="1.5" rx="0.5" fill="white" opacity="0.6"/>
</svg>
